<?xml version="1.0" encoding="UTF-8"?>
<!DOCTYPE svg PUBLIC "-//W3C//DTD SVG 1.1//EN" "http://www.w3.org/Graphics/SVG/1.1/DTD/svg11.dtd">
<svg xmlns="http://www.w3.org/2000/svg" version="1.1" width="202px" height="237px" style="shape-rendering:geometricPrecision; text-rendering:geometricPrecision; image-rendering:optimizeQuality; fill-rule:evenodd; clip-rule:evenodd" xmlns:xlink="http://www.w3.org/1999/xlink">
<g><path style="opacity:0.862" fill="#123f6b" d="M 83.5,-0.5 C 93.8333,-0.5 104.167,-0.5 114.5,-0.5C 115.167,0.833333 115.833,0.833333 116.5,-0.5C 118.167,-0.5 119.833,-0.5 121.5,-0.5C 121.082,0.221579 120.416,0.721579 119.5,1C 123.637,1.93442 127.637,3.26776 131.5,5C 125.446,5.12551 119.446,4.45885 113.5,3C 96.0363,1.41047 79.3696,4.2438 63.5,11.5C 62.7101,10.2058 61.7101,9.0391 60.5,8C 61.056,7.61742 61.3893,7.11742 61.5,6.5C 68.7152,3.76147 76.0485,1.42813 83.5,-0.5 Z"/></g>
<g><path style="opacity:0.992" fill="#005969" d="M 61.5,6.5 C 61.3893,7.11742 61.056,7.61742 60.5,8C 61.7101,9.0391 62.7101,10.2058 63.5,11.5C 58.8766,14.4353 54.2099,17.4353 49.5,20.5C 48.5218,18.1884 46.8552,16.5218 44.5,15.5C 49.6949,11.7344 55.3616,8.73435 61.5,6.5 Z"/></g>
<g><path style="opacity:0.984" fill="#dd1412" d="M 150.5,138.5 C 148.632,139.263 146.965,140.263 145.5,141.5C 129.458,150.097 112.458,153.764 94.5,152.5C 93.5,152.5 92.5,152.5 91.5,152.5C 89.9582,151.699 88.2915,151.366 86.5,151.5C 83.7846,149.928 80.7846,148.928 77.5,148.5C 77.5,147.833 77.1667,147.5 76.5,147.5C 77.2739,146.853 78.2739,146.52 79.5,146.5C 94.694,150.648 109.361,150.315 123.5,145.5C 128.95,143.939 133.95,141.606 138.5,138.5C 157.94,126.517 168.607,109.017 170.5,86C 170.569,81.9053 169.903,78.0719 168.5,74.5C 168.706,71.5049 168.04,68.8383 166.5,66.5C 166.737,65.209 166.404,64.209 165.5,63.5C 165.5,62.8333 165.167,62.5 164.5,62.5C 164.5,62.1667 164.5,61.8333 164.5,61.5C 164.672,60.5084 164.338,59.8417 163.5,59.5C 163.672,58.5084 163.338,57.8417 162.5,57.5C 162.5,56.8333 162.167,56.5 161.5,56.5C 161.672,55.5084 161.338,54.8417 160.5,54.5C 160.672,53.5084 160.338,52.8417 159.5,52.5C 159.5,51.1667 158.833,50.5 157.5,50.5C 157.573,48.9731 156.906,47.9731 155.5,47.5C 155.5,45.5 154.5,44.5 152.5,44.5C 152.5,43.8333 152.167,43.5 151.5,43.5C 151.631,42.7611 151.464,42.0944 151,41.5C 139.558,30.0296 125.725,23.1963 109.5,21C 75.7272,17.8025 50.2272,30.6358 33,59.5C 28.5761,70.963 27.4095,82.6297 29.5,94.5C 29.2322,96.099 29.5655,97.4324 30.5,98.5C 30.2322,100.099 30.5655,101.432 31.5,102.5C 31.6309,103.376 31.2975,104.043 30.5,104.5C 20.3519,73.3955 27.6852,47.2288 52.5,26C 55.7101,24.7985 58.3767,22.7985 60.5,20C 89.1519,6.05439 117.819,6.05439 146.5,20C 178.166,40.5293 188.666,69.0293 178,105.5C 172.085,119.402 162.918,130.402 150.5,138.5 Z M 151.5,43.5 C 145.46,36.8124 138.126,32.1458 129.5,29.5C 127.507,27.8368 125.174,26.6701 122.5,26C 101.443,20.7472 81.1097,22.7472 61.5,32C 38.3018,46.2264 27.6351,67.0598 29.5,94.5C 27.4095,82.6297 28.5761,70.963 33,59.5C 50.2272,30.6358 75.7272,17.8025 109.5,21C 125.725,23.1963 139.558,30.0296 151,41.5C 151.464,42.0944 151.631,42.7611 151.5,43.5 Z M 152.5,44.5 C 154.5,44.5 155.5,45.5 155.5,47.5C 154.167,46.8333 153.167,45.8333 152.5,44.5 Z M 155.5,47.5 C 156.906,47.9731 157.573,48.9731 157.5,50.5C 156.094,50.0269 155.427,49.0269 155.5,47.5 Z M 157.5,50.5 C 158.833,50.5 159.5,51.1667 159.5,52.5C 158.5,52.1667 157.833,51.5 157.5,50.5 Z M 166.5,66.5 C 168.04,68.8383 168.706,71.5049 168.5,74.5C 167.232,72.0948 166.565,69.4282 166.5,66.5 Z"/></g>
<g><path style="opacity:0.012" fill="#bb0001" d="M 166.5,19.5 C 167.497,18.2875 168.497,18.4542 169.5,20C 168.423,20.4696 167.423,20.3029 166.5,19.5 Z"/></g>
<g><path style="opacity:0.004" fill="#fe0000" d="M 170.5,20.5 C 171.833,21.1667 171.833,21.1667 170.5,20.5 Z"/></g>
<g><path style="opacity:0.978" fill="#037463" d="M 44.5,15.5 C 46.8552,16.5218 48.5218,18.1884 49.5,20.5C 43.1667,26.1667 37.1667,32.1667 31.5,38.5C 29.3692,37.3413 28.0359,35.5079 27.5,33C 26.0406,33.3554 24.7072,33.1888 23.5,32.5C 26.8306,29.6946 29.8306,26.5279 32.5,23C 36.1544,19.85 40.1544,17.35 44.5,15.5 Z"/></g>
<g><path style="opacity:0.969" fill="#112d51" d="M 129.5,29.5 C 126.451,28.6426 123.451,28.6426 120.5,29.5C 119.808,28.9747 119.308,28.3081 119,27.5C 118.439,28.0219 117.772,28.3552 117,28.5C 109.942,26.7958 102.776,26.1292 95.5,26.5C 90.0219,26.369 84.6886,27.2023 79.5,29C 74.8829,31.1453 70.2162,32.9786 65.5,34.5C 61.402,36.7488 57.402,39.2488 53.5,42C 45.1184,50.2624 39.4518,60.0957 36.5,71.5C 31.1533,101.308 41.8199,123.475 68.5,138C 87.2758,145.676 106.276,146.343 125.5,140C 140.319,134.01 150.986,123.843 157.5,109.5C 159.551,106.342 161.217,103.008 162.5,99.5C 166.034,97.1013 168.034,93.768 168.5,89.5C 167.451,104.429 161.451,116.929 150.5,127C 145.96,131.046 141.293,134.879 136.5,138.5C 130.267,140.462 124.267,142.796 118.5,145.5C 90.0575,151.511 65.5575,144.511 45,124.5C 39.4151,117.767 34.9151,110.433 31.5,102.5C 31.7678,100.901 31.4345,99.5676 30.5,98.5C 30.7678,96.901 30.4345,95.5676 29.5,94.5C 27.6351,67.0598 38.3018,46.2264 61.5,32C 81.1097,22.7472 101.443,20.7472 122.5,26C 125.174,26.6701 127.507,27.8368 129.5,29.5 Z"/></g>
<g><path style="opacity:1" fill="#1b3b5f" d="M 95.5,26.5 C 102.776,26.1292 109.942,26.7958 117,28.5C 117.772,28.3552 118.439,28.0219 119,27.5C 119.308,28.3081 119.808,28.9747 120.5,29.5C 123.451,28.6426 126.451,28.6426 129.5,29.5C 138.126,32.1458 145.46,36.8124 151.5,43.5C 152.167,43.5 152.5,43.8333 152.5,44.5C 153.167,45.8333 154.167,46.8333 155.5,47.5C 155.427,49.0269 156.094,50.0269 157.5,50.5C 157.833,51.5 158.5,52.1667 159.5,52.5C 159.328,53.4916 159.662,54.1583 160.5,54.5C 160.328,55.4916 160.662,56.1583 161.5,56.5C 162.167,56.5 162.5,56.8333 162.5,57.5C 162.328,58.4916 162.662,59.1583 163.5,59.5C 163.328,60.4916 163.662,61.1583 164.5,61.5C 164.5,61.8333 164.5,62.1667 164.5,62.5C 165.167,62.5 165.5,62.8333 165.5,63.5C 165.263,64.791 165.596,65.791 166.5,66.5C 166.565,69.4282 167.232,72.0948 168.5,74.5C 168.962,79.577 168.962,84.577 168.5,89.5C 168.034,93.768 166.034,97.1013 162.5,99.5C 165.249,90.1038 165.082,80.7705 162,71.5C 165.114,97.1051 155.614,116.272 133.5,129C 127.667,131.666 121.667,133.833 115.5,135.5C 94.1407,138.266 75.4741,132.599 59.5,118.5C 44.2782,102.09 40.1115,83.0905 47,61.5C 50.4837,53.5345 55.6503,46.8678 62.5,41.5C 71.9247,32.953 82.9247,27.953 95.5,26.5 Z"/></g>
<g><path style="opacity:1" fill="#36505b" d="M 90.5,37.5 C 90.8333,37.5 91.1667,37.5 91.5,37.5C 95.1817,37.3347 98.8484,37.5014 102.5,38C 76.467,48.569 68.3003,67.069 78,93.5C 88.145,109.158 102.645,116.825 121.5,116.5C 123.833,116.333 126.167,116.167 128.5,116C 133.291,114.765 137.958,113.265 142.5,111.5C 140.748,113.246 139.415,115.246 138.5,117.5C 136.938,117.733 135.605,118.4 134.5,119.5C 101.49,126.167 79.1571,113.834 67.5,82.5C 66.2628,62.8384 73.9294,47.8384 90.5,37.5 Z"/></g>
<g><path style="opacity:1" fill="#445b5c" d="M 91.5,37.5 C 96.6503,36.3493 101.984,36.1826 107.5,37C 110.457,37.2794 113.123,38.1127 115.5,39.5C 101.762,40.5539 90.9291,46.5539 83,57.5C 73.0488,79.314 78.5488,96.1473 99.5,108C 109.852,112.412 120.518,113.412 131.5,111C 137.541,108.646 143.208,105.813 148.5,102.5C 149.265,99.3298 150.265,96.3298 151.5,93.5C 153.41,92.0254 154.576,90.0254 155,87.5C 155.667,80.5 155.667,73.5 155,66.5C 153.807,64.1136 152.64,61.7802 151.5,59.5C 154.192,60.53 155.692,62.53 156,65.5C 157.331,72.4586 157.664,79.4586 157,86.5C 153.483,92.0501 150.816,98.0501 149,104.5C 146.6,106.729 144.433,109.063 142.5,111.5C 137.958,113.265 133.291,114.765 128.5,116C 126.167,116.167 123.833,116.333 121.5,116.5C 102.645,116.825 88.145,109.158 78,93.5C 68.3003,67.069 76.467,48.569 102.5,38C 98.8484,37.5014 95.1817,37.3347 91.5,37.5 Z"/></g>
<g><path style="opacity:1" fill="#a8aaad" d="M 95.5,26.5 C 82.9247,27.953 71.9247,32.953 62.5,41.5C 62.44,40.9569 62.1067,40.6236 61.5,40.5C 60.5,41.1667 59.5,41.8333 58.5,42.5C 53.7703,46.2269 49.7703,50.5603 46.5,55.5C 48.1396,51.5591 50.3063,47.8924 53,44.5C 57.6431,41.6826 61.8098,38.3492 65.5,34.5C 70.2162,32.9786 74.8829,31.1453 79.5,29C 84.6886,27.2023 90.0219,26.369 95.5,26.5 Z"/></g>
<g><path style="opacity:1" fill="#29455a" d="M 90.5,37.5 C 73.9294,47.8384 66.2628,62.8384 67.5,82.5C 79.1571,113.834 101.49,126.167 134.5,119.5C 130.493,123.174 125.827,125.841 120.5,127.5C 97.9953,127.648 80.1619,117.981 67,98.5C 57.4791,80.556 58.6457,63.3894 70.5,47C 70.2716,46.6012 69.9382,46.4346 69.5,46.5C 75.3826,41.2568 82.3826,38.2568 90.5,37.5 Z"/></g>
<g><path style="opacity:1" fill="#51675b" d="M 115.5,39.5 C 118.963,40.0991 122.296,41.0991 125.5,42.5C 111.337,41.7257 99.0033,46.3924 88.5,56.5C 78.107,72.2668 79.7737,86.7668 93.5,100C 115.01,113.397 134.344,110.897 151.5,92.5C 151.5,92.8333 151.5,93.1667 151.5,93.5C 150.265,96.3298 149.265,99.3298 148.5,102.5C 143.208,105.813 137.541,108.646 131.5,111C 120.518,113.412 109.852,112.412 99.5,108C 78.5488,96.1473 73.0488,79.314 83,57.5C 90.9291,46.5539 101.762,40.5539 115.5,39.5 Z"/></g>
<g><path style="opacity:1" fill="#01965d" d="M 23.5,32.5 C 24.7072,33.1888 26.0406,33.3554 27.5,33C 28.0359,35.5079 29.3692,37.3413 31.5,38.5C 27.7694,46.0358 24.4361,53.7024 21.5,61.5C 17.6183,59.0659 13.9516,56.3993 10.5,53.5C 13.6179,45.7223 17.9512,38.7223 23.5,32.5 Z"/></g>
<g><path style="opacity:1" fill="#5f7259" d="M 125.5,42.5 C 129.603,44.2164 132.936,46.8831 135.5,50.5C 117.879,43.189 102.713,46.5223 90,60.5C 81.3904,78.8481 85.8904,92.6814 103.5,102C 119.333,108.5 133.166,105.667 145,93.5C 149.361,87.9141 151.195,81.5808 150.5,74.5C 151.167,76.1667 151.833,77.8333 152.5,79.5C 152.414,83.8566 152.08,88.19 151.5,92.5C 134.344,110.897 115.01,113.397 93.5,100C 79.7737,86.7668 78.107,72.2668 88.5,56.5C 99.0033,46.3924 111.337,41.7257 125.5,42.5 Z"/></g>
<g><path style="opacity:0.978" fill="#00ae58" d="M 10.5,53.5 C 13.9516,56.3993 17.6183,59.0659 21.5,61.5C 20.3354,66.8305 19.3354,72.1639 18.5,77.5C 17.8826,77.6107 17.3826,77.944 17,78.5C 14.0109,75.3451 10.8442,72.3451 7.5,69.5C 6.54811,67.9547 6.21478,66.288 6.5,64.5C 6.77692,60.3559 8.11026,56.6892 10.5,53.5 Z"/></g>
<g><path style="opacity:1" fill="#282b2f" d="M 158.5,90.5 C 154.13,101.203 147.463,110.203 138.5,117.5C 139.415,115.246 140.748,113.246 142.5,111.5C 144.433,109.063 146.6,106.729 149,104.5C 150.816,98.0501 153.483,92.0501 157,86.5C 157.664,79.4586 157.331,72.4586 156,65.5C 155.692,62.53 154.192,60.53 151.5,59.5C 151.649,58.448 151.483,57.448 151,56.5C 146.559,51.0558 141.726,45.8891 136.5,41C 133.757,38.9617 130.757,37.4617 127.5,36.5C 123.605,35.5376 119.939,34.2043 116.5,32.5C 115.737,31.7321 114.737,31.2321 113.5,31C 110.167,30.8333 106.833,30.6667 103.5,30.5C 98.5629,30.3002 93.8962,30.9669 89.5,32.5C 88.1266,32.3433 86.7932,32.51 85.5,33C 81.6964,34.688 78.0298,36.5214 74.5,38.5C 65.0595,43.9404 58.0595,51.6071 53.5,61.5C 49.6873,70.3975 47.854,79.7309 48,89.5C 45.8858,61.2787 58.0525,42.112 84.5,32C 112.332,24.5088 135.165,32.0088 153,54.5C 160.515,65.914 162.348,77.914 158.5,90.5 Z"/></g>
<g><path style="opacity:1" fill="#747679" d="M 74.5,38.5 C 71.0622,41.4347 67.7289,44.6014 64.5,48C 64.7284,48.3988 65.0618,48.5654 65.5,48.5C 61.1321,52.533 57.1321,56.8663 53.5,61.5C 58.0595,51.6071 65.0595,43.9404 74.5,38.5 Z"/></g>
<g><path style="opacity:1" fill="#eeefee" d="M 116.5,32.5 C 119.939,34.2043 123.605,35.5376 127.5,36.5C 132.055,40.4721 136.722,44.4721 141.5,48.5C 143.65,54.2933 145.983,59.9599 148.5,65.5C 146.023,61.8992 143.523,58.2326 141,54.5C 139.549,52.5359 137.716,51.2026 135.5,50.5C 132.936,46.8831 129.603,44.2164 125.5,42.5C 122.296,41.0991 118.963,40.0991 115.5,39.5C 113.123,38.1127 110.457,37.2794 107.5,37C 101.984,36.1826 96.6503,36.3493 91.5,37.5C 91.1667,37.5 90.8333,37.5 90.5,37.5C 82.3826,38.2568 75.3826,41.2568 69.5,46.5C 68.1667,47.1667 66.8333,47.8333 65.5,48.5C 65.0618,48.5654 64.7284,48.3988 64.5,48C 67.7289,44.6014 71.0622,41.4347 74.5,38.5C 78.0298,36.5214 81.6964,34.688 85.5,33C 86.7932,32.51 88.1266,32.3433 89.5,32.5C 98.5131,31.3427 107.513,31.3427 116.5,32.5 Z"/></g>
<g><path style="opacity:1" fill="#838383" d="M 116.5,32.5 C 107.513,31.3427 98.5131,31.3427 89.5,32.5C 93.8962,30.9669 98.5629,30.3002 103.5,30.5C 106.833,30.6667 110.167,30.8333 113.5,31C 114.737,31.2321 115.737,31.7321 116.5,32.5 Z"/></g>
<g><path style="opacity:1" fill="#494a4c" d="M 65.5,34.5 C 61.8098,38.3492 57.6431,41.6826 53,44.5C 50.3063,47.8924 48.1396,51.5591 46.5,55.5C 41.8236,60.5238 38.9903,66.5238 38,73.5C 37.3017,81.5279 37.4683,89.5279 38.5,97.5C 37.1127,95.1234 36.2794,92.4568 36,89.5C 35.4248,83.4781 35.5915,77.4781 36.5,71.5C 39.4518,60.0957 45.1184,50.2624 53.5,42C 57.402,39.2488 61.402,36.7488 65.5,34.5 Z"/></g>
<g><path style="opacity:0.005" fill="#ec0000" d="M 201.5,69.5 C 201.5,74.1667 201.5,78.8333 201.5,83.5C 199.589,83.4257 198.422,82.4257 198,80.5C 197.421,76.7973 197.588,73.1306 198.5,69.5C 199.5,69.5 200.5,69.5 201.5,69.5 Z"/></g>
<g><path style="opacity:1" fill="#b5b5b3" d="M 141.5,48.5 C 149.712,57.1304 153.378,67.4637 152.5,79.5C 151.833,77.8333 151.167,76.1667 150.5,74.5C 150.127,71.4261 149.461,68.4261 148.5,65.5C 145.983,59.9599 143.65,54.2933 141.5,48.5 Z"/></g>
<g><path style="opacity:0.81" fill="#133d6b" d="M 185.5,119.5 C 184.527,117.861 183.194,116.527 181.5,115.5C 188.186,99.1651 190.352,82.1651 188,64.5C 186.44,51.283 187.44,51.283 191,64.5C 195.483,83.6082 193.65,101.942 185.5,119.5 Z"/></g>
<g><path style="opacity:1" fill="#7e7e7e" d="M 127.5,36.5 C 130.757,37.4617 133.757,38.9617 136.5,41C 141.726,45.8891 146.559,51.0558 151,56.5C 151.483,57.448 151.649,58.448 151.5,59.5C 152.64,61.7802 153.807,64.1136 155,66.5C 155.667,73.5 155.667,80.5 155,87.5C 154.576,90.0254 153.41,92.0254 151.5,93.5C 151.5,93.1667 151.5,92.8333 151.5,92.5C 152.08,88.19 152.414,83.8566 152.5,79.5C 153.378,67.4637 149.712,57.1304 141.5,48.5C 136.722,44.4721 132.055,40.4721 127.5,36.5 Z"/></g>
<g><path style="opacity:1" fill="#d4d6d8" d="M 62.5,41.5 C 55.6503,46.8678 50.4837,53.5345 47,61.5C 40.1115,83.0905 44.2782,102.09 59.5,118.5C 59.5654,118.938 59.3988,119.272 59,119.5C 55.2807,116.903 52.114,113.737 49.5,110C 48.9056,109.536 48.2389,109.369 47.5,109.5C 45.8548,106.401 44.6882,103.068 44,99.5C 42.6667,98.8333 41.6667,97.8333 41,96.5C 37.4664,81.9568 39.2998,68.2901 46.5,55.5C 49.7703,50.5603 53.7703,46.2269 58.5,42.5C 59.5,41.8333 60.5,41.1667 61.5,40.5C 62.1067,40.6236 62.44,40.9569 62.5,41.5 Z"/></g>
<g><path style="opacity:0.984" fill="#00c452" d="M 6.5,64.5 C 6.21478,66.288 6.54811,67.9547 7.5,69.5C 10.8442,72.3451 14.0109,75.3451 17,78.5C 17.3826,77.944 17.8826,77.6107 18.5,77.5C 18.755,88.184 20.755,98.5174 24.5,108.5C 24.631,109.239 24.4643,109.906 24,110.5C 17.5588,104.329 11.2255,98.3291 5,92.5C 4.90158,89.4776 4.06825,86.8109 2.5,84.5C 2.91878,77.5357 4.25211,70.869 6.5,64.5 Z"/></g>
<g><path style="opacity:1" fill="#6a7b57" d="M 135.5,50.5 C 137.716,51.2026 139.549,52.5359 141,54.5C 143.523,58.2326 146.023,61.8992 148.5,65.5C 149.461,68.4261 150.127,71.4261 150.5,74.5C 151.195,81.5808 149.361,87.9141 145,93.5C 133.166,105.667 119.333,108.5 103.5,102C 85.8904,92.6814 81.3904,78.8481 90,60.5C 102.713,46.5223 117.879,43.189 135.5,50.5 Z"/></g>
<g><path style="opacity:1" fill="#758351" d="M 111.5,51.5 C 116.913,51.2288 122.246,51.7288 127.5,53C 145.521,59.3678 151.021,71.5345 144,89.5C 130.439,104.488 115.272,106.322 98.5,95C 84.8406,81.4948 85.174,68.4948 99.5,56C 103.704,54.7691 107.704,53.2691 111.5,51.5 Z"/></g>
<g><path style="opacity:1" fill="#858d4a" d="M 114.5,52.5 C 124.75,52.2106 133.25,55.8773 140,63.5C 147.852,80.966 142.685,92.7993 124.5,99C 108.131,101.076 96.9648,94.576 91,79.5C 89.465,67.0662 94.6316,58.8996 106.5,55C 109.31,54.2177 111.977,53.3844 114.5,52.5 Z"/></g>
<g><path style="opacity:1" fill="#9d9d3c" d="M 111.5,58.5 C 126.163,56.3143 135.163,62.3143 138.5,76.5C 136.402,88.4234 129.236,94.4234 117,94.5C 111.182,94.3072 106.182,92.3072 102,88.5C 94.2512,74.9161 97.4179,64.9161 111.5,58.5 Z"/></g>
<g><path style="opacity:1" fill="#aea92f" d="M 114.5,62.5 C 117.572,62.1826 120.572,62.5159 123.5,63.5C 131.809,65.6655 134.976,70.9988 133,79.5C 129.566,89.1885 122.733,92.6885 112.5,90C 103.608,86.3815 100.441,79.8815 103,70.5C 105.433,65.5312 109.266,62.8645 114.5,62.5 Z"/></g>
<g><path style="opacity:1" fill="#bfb21c" d="M 112.5,64.5 C 125.597,62.4317 131.097,67.7651 129,80.5C 128.654,82.8477 127.487,84.6811 125.5,86C 118.22,88.8276 111.72,87.661 106,82.5C 104.316,78.721 104.15,74.8876 105.5,71C 108.296,69.2796 110.629,67.1129 112.5,64.5 Z"/></g>
<g><path style="opacity:1" fill="#dcc201" d="M 114.5,67.5 C 118.41,67.2628 122.077,68.0961 125.5,70C 128.029,72.6417 129.029,75.8084 128.5,79.5C 125.561,79.918 123.228,81.418 121.5,84C 111.761,85.9228 107.595,82.0895 109,72.5C 110.352,70.251 112.185,68.5844 114.5,67.5 Z"/></g>
<g><path style="opacity:0.004" fill="#fe0000" d="M 201.5,94.5 C 201.5,97.1667 201.5,99.8333 201.5,102.5C 198.941,99.7565 198.941,97.0898 201.5,94.5 Z"/></g>
<g><path style="opacity:0.998" fill="#00e04a" d="M 5.5,107.5 C 7.30839,107.491 8.97506,107.991 10.5,109C 29.2218,128.056 48.2218,146.723 67.5,165C 66.5842,165.278 65.9175,165.778 65.5,166.5C 36.0056,156.53 16.0056,136.864 5.5,107.5 Z"/></g>
<g><path style="opacity:1" fill="#686a6c" d="M 46.5,55.5 C 39.2998,68.2901 37.4664,81.9568 41,96.5C 41.6667,97.8333 42.6667,98.8333 44,99.5C 44.6882,103.068 45.8548,106.401 47.5,109.5C 47.7086,110.922 48.2086,112.255 49,113.5C 53.1733,117.341 57.0066,121.507 60.5,126C 68.5292,128.642 76.1959,132.309 83.5,137C 92.1302,138.368 100.797,138.702 109.5,138C 111.723,137.434 113.723,136.6 115.5,135.5C 121.667,133.833 127.667,131.666 133.5,129C 155.614,116.272 165.114,97.1051 162,71.5C 165.082,80.7705 165.249,90.1038 162.5,99.5C 161.217,103.008 159.551,106.342 157.5,109.5C 151.498,118.642 143.831,126.142 134.5,132C 97.2062,149.371 66.3729,141.538 42,108.5C 40.7868,104.767 39.6201,101.1 38.5,97.5C 37.4683,89.5279 37.3017,81.5279 38,73.5C 38.9903,66.5238 41.8236,60.5238 46.5,55.5 Z"/></g>
<g><path style="opacity:1" fill="#101318" d="M 158.5,90.5 C 156.797,101.401 151.797,110.568 143.5,118C 125.962,132.081 106.296,136.081 84.5,130C 90.1717,130.054 95.8384,130.554 101.5,131.5C 106.171,131.037 110.837,130.537 115.5,130C 117.491,129.626 119.158,128.793 120.5,127.5C 125.827,125.841 130.493,123.174 134.5,119.5C 135.605,118.4 136.938,117.733 138.5,117.5C 147.463,110.203 154.13,101.203 158.5,90.5 Z"/></g>
<g><path style="opacity:1" fill="#0d5769" d="M 181.5,115.5 C 183.194,116.527 184.527,117.861 185.5,119.5C 182.159,126.857 177.826,133.524 172.5,139.5C 171.51,137.21 169.843,135.544 167.5,134.5C 172.198,128.143 176.865,121.81 181.5,115.5 Z"/></g>
<g><path style="opacity:0.004" fill="#000000" d="M 150.5,138.5 C 151.833,138.833 153.167,139.167 154.5,139.5C 151.781,140.913 148.781,141.58 145.5,141.5C 146.965,140.263 148.632,139.263 150.5,138.5 Z"/></g>
<g><path style="opacity:0.004" fill="#000000" d="M 154.5,139.5 C 154.897,138.475 155.563,138.308 156.5,139C 155.906,139.464 155.239,139.631 154.5,139.5 Z"/></g>
<g><path style="opacity:0.004" fill="#0e1918" d="M 181.5,146.5 C 180.298,145.595 178.964,145.595 177.5,146.5C 180.471,143.851 183.804,142.018 187.5,141C 185.604,143.068 183.604,144.901 181.5,146.5 Z"/></g>
<g><path style="opacity:0.015" fill="#121212" d="M 136.5,138.5 C 137.167,138.5 137.833,138.5 138.5,138.5C 133.95,141.606 128.95,143.939 123.5,145.5C 121.833,145.5 120.167,145.5 118.5,145.5C 124.267,142.796 130.267,140.462 136.5,138.5 Z"/></g>
<g><path style="opacity:1" fill="#1a1b1d" d="M 36.5,71.5 C 35.5915,77.4781 35.4248,83.4781 36,89.5C 36.2794,92.4568 37.1127,95.1234 38.5,97.5C 39.6201,101.1 40.7868,104.767 42,108.5C 66.3729,141.538 97.2062,149.371 134.5,132C 143.831,126.142 151.498,118.642 157.5,109.5C 150.986,123.843 140.319,134.01 125.5,140C 106.276,146.343 87.2758,145.676 68.5,138C 41.8199,123.475 31.1533,101.308 36.5,71.5 Z"/></g>
<g><path style="opacity:1" fill="#a2a3a4" d="M 47.5,109.5 C 48.2389,109.369 48.9056,109.536 49.5,110C 52.114,113.737 55.2807,116.903 59,119.5C 59.3988,119.272 59.5654,118.938 59.5,118.5C 75.4741,132.599 94.1407,138.266 115.5,135.5C 113.723,136.6 111.723,137.434 109.5,138C 100.797,138.702 92.1302,138.368 83.5,137C 76.1959,132.309 68.5292,128.642 60.5,126C 57.0066,121.507 53.1733,117.341 49,113.5C 48.2086,112.255 47.7086,110.922 47.5,109.5 Z"/></g>
<g><path style="opacity:0.95" fill="#00d24f" d="M 2.5,84.5 C 4.06825,86.8109 4.90158,89.4776 5,92.5C 11.2255,98.3291 17.5588,104.329 24,110.5C 24.4643,109.906 24.631,109.239 24.5,108.5C 32.0284,125.026 43.6951,137.693 59.5,146.5C 61.6121,147.594 63.7787,148.594 66,149.5C 66.6172,148.551 66.4506,147.718 65.5,147C 66.0253,146.308 66.6919,145.808 67.5,145.5C 70.1117,146.779 72.4451,148.445 74.5,150.5C 73.0909,150.654 71.4242,150.821 69.5,151C 73.7152,152.234 77.7152,153.734 81.5,155.5C 80.2613,156.212 79.7613,157.212 80,158.5C 84.5261,162.971 89.0261,167.304 93.5,171.5C 84.0247,170.605 74.6914,168.938 65.5,166.5C 65.9175,165.778 66.5842,165.278 67.5,165C 48.2218,146.723 29.2218,128.056 10.5,109C 8.97506,107.991 7.30839,107.491 5.5,107.5C 4.03993,99.9018 3.03993,92.2351 2.5,84.5 Z"/></g>
<g><path style="opacity:0.004" fill="#000000" d="M 189.5,146.5 C 189.846,144.637 190.846,143.804 192.5,144C 191.922,145.417 190.922,146.25 189.5,146.5 Z"/></g>
<g><path style="opacity:0.004" fill="#000000" d="M 189.5,146.5 C 188.833,147.167 188.833,147.167 189.5,146.5 Z"/></g>
<g><path style="opacity:0.004" fill="#fe0000" d="M 104.5,148.5 C 104.897,147.475 105.563,147.308 106.5,148C 105.906,148.464 105.239,148.631 104.5,148.5 Z"/></g>
<g><path style="opacity:0.956" fill="#027663" d="M 167.5,134.5 C 169.843,135.544 171.51,137.21 172.5,139.5C 166.87,146.821 159.87,152.487 151.5,156.5C 150.135,153.135 147.801,150.801 144.5,149.5C 152.452,144.87 160.119,139.87 167.5,134.5 Z"/></g>
<g><path style="opacity:0.004" fill="#00ff00" d="M 174.5,148.5 C 174.833,149.167 175.167,149.833 175.5,150.5C 175.167,150.5 174.833,150.5 174.5,150.5C 172.067,149.452 172.067,148.786 174.5,148.5 Z"/></g>
<g><path style="opacity:0.004" fill="#0afe2e" d="M 76.5,147.5 C 77.1667,147.5 77.5,147.833 77.5,148.5C 79.4112,152.401 82.4112,153.401 86.5,151.5C 88.2915,151.366 89.9582,151.699 91.5,152.5C 92.5,152.5 93.5,152.5 94.5,152.5C 95.9015,155.799 97.7348,156.132 100,153.5C 100.399,153.728 100.565,154.062 100.5,154.5C 100.489,156.017 99.8228,157.184 98.5,158C 96.5116,158.18 94.5116,158.014 92.5,157.5C 90.0463,155.337 87.3797,154.67 84.5,155.5C 83.5,155.5 82.5,155.5 81.5,155.5C 77.7152,153.734 73.7152,152.234 69.5,151C 71.4242,150.821 73.0909,150.654 74.5,150.5C 72.4451,148.445 70.1117,146.779 67.5,145.5C 66.6919,145.808 66.0253,146.308 65.5,147C 66.4506,147.718 66.6172,148.551 66,149.5C 63.7787,148.594 61.6121,147.594 59.5,146.5C 57.0698,144.704 57.0698,143.037 59.5,141.5C 65.6504,142.444 71.317,144.444 76.5,147.5 Z"/></g>
<g><path style="opacity:0.039" fill="#113f35" d="M 177.5,146.5 C 176.554,150.36 178.054,151.36 182,149.5C 182.47,148.423 182.303,147.423 181.5,146.5C 183.806,146.993 186.139,147.326 188.5,147.5C 186.051,150.556 183.051,152.889 179.5,154.5C 179.607,152.621 179.107,152.288 178,153.5C 177.623,152.058 176.79,151.058 175.5,150.5C 175.167,149.833 174.833,149.167 174.5,148.5C 174.973,147.094 175.973,146.427 177.5,146.5 Z"/></g>
<g><path style="opacity:0.987" fill="#01915f" d="M 144.5,149.5 C 147.801,150.801 150.135,153.135 151.5,156.5C 147.577,158.823 143.577,161.156 139.5,163.5C 136.786,163.75 134.119,163.917 131.5,164C 129.569,161.054 127.236,158.554 124.5,156.5C 131.262,154.67 137.929,152.337 144.5,149.5 Z"/></g>
<g><path style="opacity:0.031" fill="#108b5f" d="M 174.5,150.5 C 174.833,150.5 175.167,150.5 175.5,150.5C 176.79,151.058 177.623,152.058 178,153.5C 179.107,152.288 179.607,152.621 179.5,154.5C 176.122,158.721 173.122,158.388 170.5,153.5C 172.231,153.588 173.564,152.588 174.5,150.5 Z"/></g>
<g><path style="opacity:0.963" fill="#01a55a" d="M 124.5,156.5 C 127.236,158.554 129.569,161.054 131.5,164C 134.119,163.917 136.786,163.75 139.5,163.5C 139.389,164.117 139.056,164.617 138.5,165C 132.227,165.902 126.227,167.402 120.5,169.5C 116.626,167.302 113.292,164.302 110.5,160.5C 105.735,158.841 106.402,158.174 112.5,158.5C 116.394,157.407 120.394,156.74 124.5,156.5 Z"/></g>
<g><path style="opacity:0.984" fill="#02bc56" d="M 100.5,154.5 C 104.735,155.467 108.735,156.8 112.5,158.5C 106.402,158.174 105.735,158.841 110.5,160.5C 113.292,164.302 116.626,167.302 120.5,169.5C 120.646,170.699 119.646,171.366 117.5,171.5C 109.543,171.094 101.543,171.094 93.5,171.5C 89.0261,167.304 84.5261,162.971 80,158.5C 79.7613,157.212 80.2613,156.212 81.5,155.5C 82.5,155.5 83.5,155.5 84.5,155.5C 86.9608,156.531 89.6275,157.198 92.5,157.5C 94.5116,158.014 96.5116,158.18 98.5,158C 99.8228,157.184 100.489,156.017 100.5,154.5 Z"/></g>
<g><path style="opacity:0.012" fill="#3165aa" d="M 6.5,177.5 C 7.94639,176.387 9.61305,176.22 11.5,177C 9.86586,177.494 8.19919,177.66 6.5,177.5 Z"/></g>
<g><path style="opacity:0.975" fill="#0199ca" d="M 65.5,176.5 C 64.5,177.167 63.5,177.833 62.5,178.5C 60.9719,178.517 60.4719,179.184 61,180.5C 62.1455,179.316 63.3121,179.316 64.5,180.5C 63.3915,181.29 62.0581,181.79 60.5,182C 62.0581,182.21 63.3915,182.71 64.5,183.5C 63.1667,183.5 61.8333,183.5 60.5,183.5C 60.5,184.5 60.5,185.5 60.5,186.5C 53.8333,186.5 47.1667,186.5 40.5,186.5C 40.5,189.5 40.5,192.5 40.5,195.5C 44.0419,195.813 47.3752,195.479 50.5,194.5C 50.5,193.833 50.8333,193.5 51.5,193.5C 53.6353,195.369 56.3019,196.036 59.5,195.5C 59.5,198.833 59.5,202.167 59.5,205.5C 53.1667,205.5 46.8333,205.5 40.5,205.5C 40.5,211.833 40.5,218.167 40.5,224.5C 36.5,224.5 32.5,224.5 28.5,224.5C 28.5,208.5 28.5,192.5 28.5,176.5C 40.8333,176.5 53.1667,176.5 65.5,176.5 Z"/></g>
<g><path style="opacity:0.035" fill="#1f6ea7" d="M 7.5,182.5 C 14.6989,182.362 15.3656,184.362 9.5,188.5C 6.51305,187.205 5.84638,185.205 7.5,182.5 Z"/></g>
<g><path style="opacity:0.949" fill="#007dae" d="M 65.5,176.5 C 77.1667,176.5 88.8333,176.5 100.5,176.5C 100.5,179.833 100.5,183.167 100.5,186.5C 93.1667,186.5 85.8333,186.5 78.5,186.5C 78.5,189.5 78.5,192.5 78.5,195.5C 85.5,195.5 92.5,195.5 99.5,195.5C 99.5,198.833 99.5,202.167 99.5,205.5C 92.5,205.5 85.5,205.5 78.5,205.5C 78.5,208.5 78.5,211.5 78.5,214.5C 86.1667,214.5 93.8333,214.5 101.5,214.5C 101.5,217.833 101.5,221.167 101.5,224.5C 89.8333,224.5 78.1667,224.5 66.5,224.5C 67.1486,210.459 66.4819,196.792 64.5,183.5C 63.3915,182.71 62.0581,182.21 60.5,182C 62.0581,181.79 63.3915,181.29 64.5,180.5C 66.0281,180.483 66.5281,179.816 66,178.5C 65.0138,179.171 63.8471,179.171 62.5,178.5C 63.5,177.833 64.5,177.167 65.5,176.5 Z"/></g>
<g><path style="opacity:0.912" fill="#005888" d="M 148.5,176.5 C 159.833,176.5 171.167,176.5 182.5,176.5C 182.5,179.833 182.5,183.167 182.5,186.5C 175.167,186.5 167.833,186.5 160.5,186.5C 160.5,189.5 160.5,192.5 160.5,195.5C 167.5,195.5 174.5,195.5 181.5,195.5C 181.5,198.833 181.5,202.167 181.5,205.5C 174.5,205.5 167.5,205.5 160.5,205.5C 160.5,208.5 160.5,211.5 160.5,214.5C 168.167,214.5 175.833,214.5 183.5,214.5C 183.5,217.833 183.5,221.167 183.5,224.5C 171.495,224.667 159.495,224.5 147.5,224C 148.491,208.244 148.825,192.411 148.5,176.5 Z"/></g>
<g><path style="opacity:0.004" fill="#215e5e" d="M 51.5,193.5 C 50.8333,193.5 50.5,193.833 50.5,194.5C 49.4265,193.749 49.2599,192.749 50,191.5C 50.7172,192.044 51.2172,192.711 51.5,193.5 Z"/></g>
<g><path style="opacity:0.004" fill="#000000" d="M 8.5,198.5 C 9.83333,199.167 9.83333,199.167 8.5,198.5 Z"/></g>
<g><path style="opacity:0.993" fill="#006b9b" d="M 106.5,176.5 C 116.089,175.848 125.423,177.014 134.5,180C 144.424,188.42 147.258,198.92 143,211.5C 139.001,218.827 132.834,222.993 124.5,224C 118.509,224.499 112.509,224.666 106.5,224.5C 106.5,208.5 106.5,192.5 106.5,176.5 Z M 118.5,186.5 C 132.039,189.595 135.706,197.429 129.5,210C 126.271,212.616 122.604,214.116 118.5,214.5C 118.5,205.167 118.5,195.833 118.5,186.5 Z"/></g>
<g><path style="opacity:0.012" fill="#184e8f" d="M 41.5,212.5 C 42.7479,213.334 43.4146,214.667 43.5,216.5C 43.1667,217.833 42.8333,219.167 42.5,220.5C 41.52,217.914 41.1866,215.247 41.5,212.5 Z"/></g>
<g><path style="opacity:0.078" fill="#1386c2" d="M 11.5,220.5 C 12.5,220.5 13.5,220.5 14.5,220.5C 14.5,221.833 14.5,223.167 14.5,224.5C 9.83077,225.01 8.83077,223.677 11.5,220.5 Z"/></g>
<g><path style="opacity:0.004" fill="#000000" d="M 48.5,223.5 C 49.8333,224.167 49.8333,224.167 48.5,223.5 Z"/></g>
<g><path style="opacity:0.004" fill="#000000" d="M 196.5,223.5 C 197.833,224.167 197.833,224.167 196.5,223.5 Z"/></g>
</svg>
